<svg version="1.1" id="Layer_1" xmlns="http://www.w3.org/2000/svg" xmlns:xlink="http://www.w3.org/1999/xlink" x="0px" y="0px"
	 width="100%" viewBox="0 0 1765 746" enable-background="new 0 0 1765 746" xml:space="preserve">
<path fill="#000000" opacity="1.000000" stroke="none" 
	d="
M343.000000,1.000001 
	C363.020905,1.000000 383.041779,1.000000 403.696899,1.407584 
	C413.492859,2.543389 422.676208,3.070522 431.810638,4.052686 
	C442.320770,5.182770 453.008942,5.798605 463.226868,8.265384 
	C483.961548,13.271113 504.687836,18.592106 524.940613,25.236946 
	C546.191284,32.209217 566.082520,42.516937 585.015381,54.519295 
	C601.133850,64.737518 616.566223,75.869255 629.970154,89.544716 
	C638.794556,98.547874 648.186584,107.179543 655.795715,117.144806 
	C666.761353,131.505890 676.338684,146.927078 686.193970,161.432953 
	C686.193970,111.009789 686.193970,59.533077 686.193970,8.999945 
	C802.966553,8.999945 919.196960,8.952439 1035.427124,9.086946 
	C1045.094238,9.098134 1054.903076,9.522631 1064.395386,11.185763 
	C1081.683594,14.214828 1098.875488,17.937853 1115.940430,22.062944 
	C1140.665894,28.039845 1163.642578,38.529808 1184.733521,52.543316 
	C1200.651855,63.120014 1215.244751,75.465996 1227.887085,90.135651 
	C1240.015259,104.208664 1250.570923,119.201950 1259.151123,135.605957 
	C1268.954834,154.349258 1275.625122,174.236771 1279.984009,194.903046 
	C1283.803467,213.012604 1286.244263,231.296356 1285.971313,249.846680 
	C1285.788574,262.264740 1285.832520,274.718597 1284.847046,287.082428 
	C1284.011841,297.561249 1282.275757,308.021301 1280.181396,318.335968 
	C1275.389526,341.934570 1266.770874,364.171875 1254.975098,385.160767 
	C1246.604736,400.054352 1236.839966,414.014557 1224.996460,426.314789 
	C1217.235107,434.375580 1208.827881,441.866669 1200.286011,449.113281 
	C1181.178345,465.323578 1159.347046,477.241699 1136.356689,486.715790 
	C1109.389038,497.828766 1080.949951,503.804230 1051.996460,506.878845 
	C1039.069946,508.251526 1026.010498,508.785370 1013.003906,508.908875 
	C982.845459,509.195251 952.682434,509.000000 922.521301,509.000000 
	C920.754822,509.000000 918.988281,509.000000 916.845215,509.000000 
	C916.845215,586.957336 916.845215,664.353271 916.845215,741.739990 
	C839.730103,741.739990 763.001526,741.739990 685.876038,741.739990 
	C685.876038,693.469116 685.876038,645.456787 685.876038,598.275269 
	C671.984375,612.941467 657.909302,627.881653 643.720703,642.713135 
	C640.890442,645.671570 637.715942,648.323853 634.546997,650.931030 
	C621.835876,661.388916 609.387146,672.202026 596.247498,682.094849 
	C569.850891,701.969055 540.914124,717.317688 509.313690,727.079224 
	C493.682129,731.907776 477.601471,735.326660 461.647614,739.056580 
	C442.683685,743.490295 423.352570,745.174438 403.934906,746.034363 
	C402.278931,746.107727 400.644440,746.666626 399.000000,747.000000 
	C383.312439,747.000000 367.624878,747.000000 351.301880,746.591553 
	C333.263153,744.458069 315.721344,743.582703 298.494324,740.775635 
	C280.255219,737.803650 262.071350,733.850525 244.302948,728.784180 
	C218.479523,721.421082 194.019028,710.527771 170.700851,697.040771 
	C145.616043,682.531860 122.999504,664.856689 102.355408,644.668091 
	C94.996399,637.471436 88.572205,629.297180 81.930756,621.393127 
	C69.115402,606.141602 58.104565,589.615967 48.657784,572.110962 
	C34.896748,546.611633 23.617243,520.027710 16.534454,491.877472 
	C12.486497,475.789032 8.982265,459.524139 6.174848,443.177002 
	C4.270059,432.085754 4.051432,420.708557 2.926285,409.474487 
	C2.805065,408.264160 1.666600,407.155701 1.000003,406.000000 
	C1.000000,405.250000 1.000000,404.500000 1.408616,403.208008 
	C1.544821,396.444031 1.272410,390.222015 1.000000,384.000000 
	C1.000000,377.312347 1.000000,370.624725 1.408240,363.302063 
	C1.544320,357.111359 1.272160,351.555695 1.000000,346.000000 
	C1.000000,345.250000 1.000000,344.500000 1.384206,343.241638 
	C2.178839,341.351471 2.798887,339.994659 2.967323,338.583923 
	C4.685505,324.193207 5.571611,309.654053 8.190324,295.432587 
	C11.358616,278.226532 15.477386,261.151398 20.081095,244.263947 
	C27.241970,217.996277 38.559502,193.366684 52.075825,169.806229 
	C69.126671,140.084686 89.974213,113.412361 115.737045,90.550026 
	C129.397995,78.427086 143.708527,67.301895 159.058136,57.519249 
	C180.778305,43.676521 203.585129,31.856104 228.199127,24.085983 
	C245.157852,18.732477 262.374207,14.116231 279.640747,9.837771 
	C298.952881,5.052437 318.709076,2.990920 338.568542,1.966321 
	C340.058350,1.889458 341.523438,1.333335 343.000000,1.000001 
M236.473541,349.022125 
	C235.982361,356.568939 235.218445,364.111023 235.087357,371.664093 
	C234.984772,377.574219 235.579727,383.504425 236.021637,389.414001 
	C236.595306,397.085632 237.239624,404.754089 238.004028,412.408905 
	C239.744324,429.835907 244.209076,446.507812 250.865479,462.756958 
	C261.640564,489.060516 279.091156,509.314117 303.761810,523.259766 
	C328.695618,537.354309 356.140106,542.463928 384.249847,543.771606 
	C398.183105,544.419800 412.260986,543.060120 426.213196,541.890503 
	C440.108673,540.725586 453.229767,536.136963 465.913330,530.524658 
	C486.409363,521.455566 503.357910,507.545441 518.340271,491.107605 
	C521.087280,488.093781 523.434631,484.715668 526.606079,480.694794 
	C464.944794,480.694794 404.541199,480.694794 344.317078,480.694794 
	C344.317078,425.949921 344.317078,371.553650 344.317078,316.787445 
	C458.353271,316.787445 572.072754,316.787445 685.708313,316.787445 
	C685.708313,297.344910 685.708313,278.275604 685.708313,259.000000 
	C653.945618,259.000000 622.474182,259.000000 591.002747,259.000000 
	C552.512085,259.000000 514.021362,258.979492 475.530823,259.042511 
	C472.737030,259.047089 470.842651,258.714722 469.140961,255.896545 
	C466.722656,251.891495 463.623535,248.167053 460.265228,244.885696 
	C451.767029,236.582336 442.121399,229.919495 431.224640,224.949631 
	C416.438904,218.206085 400.813446,215.077362 384.815887,214.137909 
	C370.197571,213.279465 355.584869,214.105942 341.089630,216.929825 
	C317.158020,221.592041 296.111084,231.848999 278.723877,248.916901 
	C264.915802,262.471405 255.065140,278.871552 248.125671,296.837158 
	C241.757462,313.323883 237.775833,330.462433 236.473541,349.022125 
M937.500122,193.000000 
	C930.735229,193.000000 923.970337,193.000000 917.277039,193.000000 
	C917.277039,237.970093 917.277039,282.366028 917.277039,327.000000 
	C938.022217,327.000000 958.497742,327.304626 978.957336,326.864136 
	C988.376770,326.661346 997.920227,325.745087 1007.130615,323.824493 
	C1020.947510,320.943390 1032.753418,314.233032 1041.208496,302.346497 
	C1050.380005,289.452942 1052.147583,274.514740 1052.771484,259.501282 
	C1053.069580,252.329437 1051.486572,244.949814 1049.900879,237.855316 
	C1046.210205,221.343567 1037.057983,208.901413 1021.642761,201.146957 
	C1010.196106,195.388809 997.898804,193.624619 985.480408,193.145477 
	C969.841675,192.542099 954.162109,193.000000 937.500122,193.000000 
z"/>
<path fill="#000000" opacity="1.000000" stroke="none" 
	d="
M1766.000000,8.000000 
	C1766.000000,252.361374 1766.000000,496.722748 1765.531372,741.542053 
	C1689.138916,742.000000 1613.215088,742.000000 1536.946655,742.000000 
	C1536.946655,621.823425 1536.946655,502.147430 1536.946655,382.471436 
	C1535.817261,383.036438 1535.273193,383.763916 1535.021362,384.581451 
	C1531.481323,396.068451 1527.991577,407.570862 1524.469238,419.063293 
	C1517.564331,441.592712 1510.673950,464.126709 1503.727173,486.643280 
	C1495.362183,513.756958 1486.956787,540.858215 1478.546387,567.957886 
	C1469.376953,597.503174 1460.154297,627.032104 1451.005249,656.583679 
	C1442.200562,685.022217 1433.460327,713.480713 1424.760376,741.707764 
	C1424.212402,741.879211 1424.055054,741.971558 1423.897705,741.971558 
	C1359.409790,741.985168 1294.921753,741.971558 1230.433960,742.067261 
	C1227.476562,742.071594 1226.684814,740.792053 1225.933472,738.305298 
	C1218.283325,712.982971 1210.540527,687.688416 1202.754028,662.407532 
	C1194.401733,635.289917 1185.955811,608.201233 1177.585083,581.089233 
	C1169.026367,553.368591 1160.635132,525.594910 1151.827271,497.953827 
	C1150.625122,494.181183 1151.356689,492.629883 1154.508057,491.092926 
	C1163.163208,486.871643 1171.837524,482.676331 1180.353394,478.184845 
	C1196.322632,469.762238 1210.872681,459.157776 1224.185059,447.095947 
	C1239.399170,433.311066 1253.560791,418.360687 1263.917847,400.432953 
	C1270.481323,389.071899 1276.331543,377.277985 1282.063110,365.465424 
	C1285.251099,358.895233 1287.539307,351.888428 1290.478394,344.458099 
	C1302.968018,378.476288 1315.219604,411.846466 1327.872559,446.309662 
	C1337.895630,418.678436 1347.487915,392.397827 1356.962158,366.074768 
	C1368.352417,334.428558 1379.678467,302.759216 1390.965820,271.076172 
	C1403.220337,236.677841 1415.330200,202.227905 1427.628662,167.845383 
	C1439.981445,133.311371 1452.502686,98.837692 1464.922241,64.327545 
	C1471.267212,46.696690 1477.807129,29.128304 1483.675171,11.339087 
	C1485.070923,7.107618 1487.514648,8.035305 1490.051270,8.034183 
	C1582.034180,7.993478 1674.017090,8.000000 1766.000000,8.000000 
z"/>
<path fill="#FFFFFF" opacity="1.000000" stroke="none" 
	d="
M1766.000000,7.502095 
	C1674.017090,8.000000 1582.034180,7.993478 1490.051270,8.034183 
	C1487.514648,8.035305 1485.070923,7.107618 1483.675171,11.339087 
	C1477.807129,29.128304 1471.267212,46.696690 1464.922241,64.327545 
	C1452.502686,98.837692 1439.981445,133.311371 1427.628662,167.845383 
	C1415.330200,202.227905 1403.220337,236.677841 1390.965820,271.076172 
	C1379.678467,302.759216 1368.352417,334.428558 1356.962158,366.074768 
	C1347.487915,392.397827 1337.895630,418.678436 1327.872559,446.309662 
	C1315.219604,411.846466 1302.968018,378.476288 1290.478394,344.458099 
	C1287.539307,351.888428 1285.251099,358.895233 1282.063110,365.465424 
	C1276.331543,377.277985 1270.481323,389.071899 1263.917847,400.432953 
	C1253.560791,418.360687 1239.399170,433.311066 1224.185059,447.095947 
	C1210.872681,459.157776 1196.322632,469.762238 1180.353394,478.184845 
	C1171.837524,482.676331 1163.163208,486.871643 1154.508057,491.092926 
	C1151.356689,492.629883 1150.625122,494.181183 1151.827271,497.953827 
	C1160.635132,525.594910 1169.026367,553.368591 1177.585083,581.089233 
	C1185.955811,608.201233 1194.401733,635.289917 1202.754028,662.407532 
	C1210.540527,687.688416 1218.283325,712.982971 1225.933472,738.305298 
	C1226.684814,740.792053 1227.476562,742.071594 1230.433960,742.067261 
	C1294.921753,741.971558 1359.409790,741.985168 1423.897705,741.971558 
	C1424.055054,741.971558 1424.212402,741.879211 1424.760376,741.707764 
	C1433.460327,713.480713 1442.200562,685.022217 1451.005249,656.583679 
	C1460.154297,627.032104 1469.376953,597.503174 1478.546387,567.957886 
	C1486.956787,540.858215 1495.362183,513.756958 1503.727173,486.643280 
	C1510.673950,464.126709 1517.564331,441.592712 1524.469238,419.063293 
	C1527.991577,407.570862 1531.481323,396.068451 1535.021362,384.581451 
	C1535.273193,383.763916 1535.817261,383.036438 1536.946655,382.471436 
	C1536.946655,502.147430 1536.946655,621.823425 1536.946655,742.000000 
	C1613.215088,742.000000 1689.138916,742.000000 1765.531372,742.000000 
	C1766.000000,743.666138 1766.000000,745.332275 1766.000000,746.999207 
	C1310.645752,747.000000 855.291565,747.000000 399.468658,747.000000 
	C400.644440,746.666626 402.278931,746.107727 403.934906,746.034363 
	C423.352570,745.174438 442.683685,743.490295 461.647614,739.056580 
	C477.601471,735.326660 493.682129,731.907776 509.313690,727.079224 
	C540.914124,717.317688 569.850891,701.969055 596.247498,682.094849 
	C609.387146,672.202026 621.835876,661.388916 634.546997,650.931030 
	C637.715942,648.323853 640.890442,645.671570 643.720703,642.713135 
	C657.909302,627.881653 671.984375,612.941467 685.876038,598.275269 
	C685.876038,645.456787 685.876038,693.469116 685.876038,741.739990 
	C763.001526,741.739990 839.730103,741.739990 916.845215,741.739990 
	C916.845215,664.353271 916.845215,586.957336 916.845215,509.000000 
	C918.988281,509.000000 920.754822,509.000000 922.521301,509.000000 
	C952.682434,509.000000 982.845459,509.195251 1013.003906,508.908875 
	C1026.010498,508.785370 1039.069946,508.251526 1051.996460,506.878845 
	C1080.949951,503.804230 1109.389038,497.828766 1136.356689,486.715790 
	C1159.347046,477.241699 1181.178345,465.323578 1200.286011,449.113281 
	C1208.827881,441.866669 1217.235107,434.375580 1224.996460,426.314789 
	C1236.839966,414.014557 1246.604736,400.054352 1254.975098,385.160767 
	C1266.770874,364.171875 1275.389526,341.934570 1280.181396,318.335968 
	C1282.275757,308.021301 1284.011841,297.561249 1284.847046,287.082428 
	C1285.832520,274.718597 1285.788574,262.264740 1285.971313,249.846680 
	C1286.244263,231.296356 1283.803467,213.012604 1279.984009,194.903046 
	C1275.625122,174.236771 1268.954834,154.349258 1259.151123,135.605957 
	C1250.570923,119.201950 1240.015259,104.208664 1227.887085,90.135651 
	C1215.244751,75.465996 1200.651855,63.120014 1184.733521,52.543316 
	C1163.642578,38.529808 1140.665894,28.039845 1115.940430,22.062944 
	C1098.875488,17.937853 1081.683594,14.214828 1064.395386,11.185763 
	C1054.903076,9.522631 1045.094238,9.098134 1035.427124,9.086946 
	C919.196960,8.952439 802.966553,8.999945 686.193970,8.999945 
	C686.193970,59.533077 686.193970,111.009789 686.193970,161.432953 
	C676.338684,146.927078 666.761353,131.505890 655.795715,117.144806 
	C648.186584,107.179543 638.794556,98.547874 629.970154,89.544716 
	C616.566223,75.869255 601.133850,64.737518 585.015381,54.519295 
	C566.082520,42.516937 546.191284,32.209217 524.940613,25.236946 
	C504.687836,18.592106 483.961548,13.271113 463.226868,8.265384 
	C453.008942,5.798605 442.320770,5.182770 431.810638,4.052686 
	C422.676208,3.070522 413.492859,2.543389 404.165558,1.407584 
	C858.000000,1.000000 1312.000000,1.000000 1766.000000,1.003158 
	C1766.000000,3.005608 1766.000000,5.004899 1766.000000,7.502095 
z"/>
<path fill="#FFFFFF" opacity="1.000000" stroke="none" 
	d="
M1.000003,406.468658 
	C1.666600,407.155701 2.805065,408.264160 2.926285,409.474487 
	C4.051432,420.708557 4.270059,432.085754 6.174848,443.177002 
	C8.982265,459.524139 12.486497,475.789032 16.534454,491.877472 
	C23.617243,520.027710 34.896748,546.611633 48.657784,572.110962 
	C58.104565,589.615967 69.115402,606.141602 81.930756,621.393127 
	C88.572205,629.297180 94.996399,637.471436 102.355408,644.668091 
	C122.999504,664.856689 145.616043,682.531860 170.700851,697.040771 
	C194.019028,710.527771 218.479523,721.421082 244.302948,728.784180 
	C262.071350,733.850525 280.255219,737.803650 298.494324,740.775635 
	C315.721344,743.582703 333.263153,744.458069 350.833252,746.591553 
	C234.407211,747.000000 117.814423,747.000000 1.000000,747.000000 
	C1.000000,633.645874 1.000000,520.291565 1.000003,406.468658 
z"/>
<path fill="#FFFFFF" opacity="1.000000" stroke="none" 
	d="
M342.531342,1.000001 
	C341.523438,1.333335 340.058350,1.889458 338.568542,1.966321 
	C318.709076,2.990920 298.952881,5.052437 279.640747,9.837771 
	C262.374207,14.116231 245.157852,18.732477 228.199127,24.085983 
	C203.585129,31.856104 180.778305,43.676521 159.058136,57.519249 
	C143.708527,67.301895 129.397995,78.427086 115.737045,90.550026 
	C89.974213,113.412361 69.126671,140.084686 52.075825,169.806229 
	C38.559502,193.366684 27.241970,217.996277 20.081095,244.263947 
	C15.477386,261.151398 11.358616,278.226532 8.190324,295.432587 
	C5.571611,309.654053 4.685505,324.193207 2.967323,338.583923 
	C2.798887,339.994659 2.178839,341.351471 1.384206,342.866638 
	C1.000000,229.072937 1.000000,115.145859 1.000000,1.000000 
	C114.687469,1.000000 228.375076,1.000000 342.531342,1.000001 
z"/>
<path fill="#FFFFFF" opacity="1.000000" stroke="none" 
	d="
M1.000000,384.468262 
	C1.272410,390.222015 1.544821,396.444031 1.408616,402.833008 
	C1.000000,396.978851 1.000000,390.957703 1.000000,384.468262 
z"/>
<path fill="#FFFFFF" opacity="1.000000" stroke="none" 
	d="
M1.000000,346.467590 
	C1.272160,351.555695 1.544320,357.111359 1.408240,362.833527 
	C1.000000,357.645081 1.000000,352.290131 1.000000,346.467590 
z"/>
<path fill="#FFFFFF" opacity="1.000000" stroke="none" 
	d="
M236.716614,348.621887 
	C237.775833,330.462433 241.757462,313.323883 248.125671,296.837158 
	C255.065140,278.871552 264.915802,262.471405 278.723877,248.916901 
	C296.111084,231.848999 317.158020,221.592041 341.089630,216.929825 
	C355.584869,214.105942 370.197571,213.279465 384.815887,214.137909 
	C400.813446,215.077362 416.438904,218.206085 431.224640,224.949631 
	C442.121399,229.919495 451.767029,236.582336 460.265228,244.885696 
	C463.623535,248.167053 466.722656,251.891495 469.140961,255.896545 
	C470.842651,258.714722 472.737030,259.047089 475.530823,259.042511 
	C514.021362,258.979492 552.512085,259.000000 591.002747,259.000000 
	C622.474182,259.000000 653.945618,259.000000 685.708313,259.000000 
	C685.708313,278.275604 685.708313,297.344910 685.708313,316.787445 
	C572.072754,316.787445 458.353271,316.787445 344.317078,316.787445 
	C344.317078,371.553650 344.317078,425.949921 344.317078,480.694794 
	C404.541199,480.694794 464.944794,480.694794 526.606079,480.694794 
	C523.434631,484.715668 521.087280,488.093781 518.340271,491.107605 
	C503.357910,507.545441 486.409363,521.455566 465.913330,530.524658 
	C453.229767,536.136963 440.108673,540.725586 426.213196,541.890503 
	C412.260986,543.060120 398.183105,544.419800 384.249847,543.771606 
	C356.140106,542.463928 328.695618,537.354309 303.761810,523.259766 
	C279.091156,509.314117 261.640564,489.060516 250.865479,462.756958 
	C244.209076,446.507812 239.744324,429.835907 238.004028,412.408905 
	C237.239624,404.754089 236.595306,397.085632 236.021637,389.414001 
	C235.579727,383.504425 234.984772,377.574219 235.087357,371.664093 
	C235.218445,364.111023 235.982361,356.568939 236.716614,348.621887 
z"/>
<path fill="#FFFFFF" opacity="1.000000" stroke="none" 
	d="
M938.000122,193.000000 
	C954.162109,193.000000 969.841675,192.542099 985.480408,193.145477 
	C997.898804,193.624619 1010.196106,195.388809 1021.642761,201.146957 
	C1037.057983,208.901413 1046.210205,221.343567 1049.900879,237.855316 
	C1051.486572,244.949814 1053.069580,252.329437 1052.771484,259.501282 
	C1052.147583,274.514740 1050.380005,289.452942 1041.208496,302.346497 
	C1032.753418,314.233032 1020.947510,320.943390 1007.130615,323.824493 
	C997.920227,325.745087 988.376770,326.661346 978.957336,326.864136 
	C958.497742,327.304626 938.022217,327.000000 917.277039,327.000000 
	C917.277039,282.366028 917.277039,237.970093 917.277039,193.000000 
	C923.970337,193.000000 930.735229,193.000000 938.000122,193.000000 
z"/>
</svg>